<svg width="139" height="69" viewBox="0 0 139 69" fill="none" xmlns="http://www.w3.org/2000/svg">
<rect x="0.628128" y="21.9846" width="126.232" height="45.9616" rx="22.9808" stroke="white" stroke-width="1.25626"/>
<path d="M22.6774 53.5219C21.6764 53.5219 20.7793 53.3519 19.986 53.0119C19.1927 52.6531 18.56 52.1431 18.0878 51.4821C17.6345 50.8021 17.4079 49.9805 17.4079 49.0173C17.4079 48.054 17.6345 47.2513 18.0878 46.6092C18.56 45.9481 19.2022 45.4571 20.0143 45.136C20.8454 44.796 21.7897 44.626 22.8474 44.626H26.7004V43.8328C26.7004 43.1717 26.4926 42.6334 26.0771 42.2179C25.6616 41.7835 25.0005 41.5663 24.0939 41.5663C23.2063 41.5663 22.5452 41.7741 22.1108 42.1896C21.6764 42.5862 21.3931 43.1056 21.2609 43.7478L17.9745 42.6429C18.2012 41.9252 18.56 41.2736 19.0511 40.6881C19.561 40.0837 20.2315 39.602 21.0626 39.2432C21.9125 38.8654 22.9418 38.6766 24.1506 38.6766C26.0015 38.6766 27.4653 39.1393 28.5419 40.0648C29.6184 40.9903 30.1567 42.3312 30.1567 44.0877V49.3289C30.1567 49.8955 30.4211 50.1788 30.95 50.1788H32.0832V53.1252H29.7034C29.0046 53.1252 28.4285 52.9553 27.9753 52.6153C27.522 52.2753 27.2953 51.822 27.2953 51.2554V51.2271H26.757C26.6815 51.4537 26.5115 51.7559 26.2471 52.1337C25.9827 52.4925 25.5671 52.8136 25.0005 53.0969C24.4339 53.3802 23.6595 53.5219 22.6774 53.5219ZM23.3007 50.6321C24.3017 50.6321 25.1139 50.3583 25.7371 49.8105C26.3793 49.2439 26.7004 48.4979 26.7004 47.5724V47.2891H23.1024C22.4413 47.2891 21.9219 47.4308 21.5442 47.7141C21.1664 47.9974 20.9776 48.394 20.9776 48.904C20.9776 49.4139 21.1759 49.8294 21.5725 50.1505C21.9691 50.4716 22.5452 50.6321 23.3007 50.6321ZM40.0827 53.5219C38.9683 53.5219 37.9201 53.248 36.9379 52.7003C35.9747 52.1337 35.2003 51.3121 34.6148 50.2355C34.0293 49.1589 33.7366 47.8557 33.7366 46.3259V45.8726C33.7366 44.3427 34.0293 43.0395 34.6148 41.9629C35.2003 40.8864 35.9747 40.0742 36.9379 39.5265C37.9012 38.9599 38.9494 38.6766 40.0827 38.6766C40.9326 38.6766 41.6408 38.7805 42.2075 38.9882C42.793 39.1771 43.2651 39.4226 43.624 39.7248C43.9829 40.027 44.2567 40.3481 44.4456 40.6881H44.9555V33.2937H48.5252V53.1252H45.0122V51.4254H44.5022C44.1812 51.9542 43.6807 52.4359 43.0007 52.8703C42.3397 53.3047 41.367 53.5219 40.0827 53.5219ZM41.1592 50.4055C42.2547 50.4055 43.1707 50.0561 43.9073 49.3573C44.6439 48.6395 45.0122 47.6008 45.0122 46.2409V45.9576C45.0122 44.5977 44.6439 43.5683 43.9073 42.8695C43.1896 42.1518 42.2736 41.793 41.1592 41.793C40.0638 41.793 39.1477 42.1518 38.4111 42.8695C37.6745 43.5683 37.3062 44.5977 37.3062 45.9576V46.2409C37.3062 47.6008 37.6745 48.6395 38.4111 49.3573C39.1477 50.0561 40.0638 50.4055 41.1592 50.4055ZM52.4829 53.1252V39.0732H56.0526V53.1252H52.4829ZM54.2677 37.43C53.6256 37.43 53.0778 37.2223 52.6245 36.8067C52.1901 36.3912 51.9729 35.8435 51.9729 35.1636C51.9729 34.4836 52.1901 33.9359 52.6245 33.5204C53.0778 33.1049 53.6256 32.8971 54.2677 32.8971C54.9288 32.8971 55.4765 33.1049 55.9109 33.5204C56.3453 33.9359 56.5625 34.4836 56.5625 35.1636C56.5625 35.8435 56.3453 36.3912 55.9109 36.8067C55.4765 37.2223 54.9288 37.43 54.2677 37.43ZM60.0082 53.1252V39.0732H63.5212V40.9147H64.0312C64.2578 40.4236 64.6828 39.9609 65.3061 39.5265C65.9293 39.0732 66.8737 38.8466 68.1391 38.8466C69.2346 38.8466 70.1884 39.1015 71.0005 39.6115C71.8316 40.1026 72.4737 40.7919 72.927 41.6796C73.3803 42.5484 73.607 43.5683 73.607 44.7394V53.1252H70.0373V45.0227C70.0373 43.965 69.7729 43.1717 69.244 42.6429C68.7341 42.114 67.9975 41.8496 67.0342 41.8496C65.9388 41.8496 65.0889 42.2179 64.4845 42.9545C63.8801 43.6722 63.5779 44.6827 63.5779 45.9859V53.1252H60.0082ZM83.1321 53.5219C82.0177 53.5219 80.9695 53.248 79.9874 52.7003C79.0241 52.1337 78.2497 51.3121 77.6642 50.2355C77.0787 49.1589 76.786 47.8557 76.786 46.3259V45.8726C76.786 44.3427 77.0787 43.0395 77.6642 41.9629C78.2497 40.8864 79.0241 40.0742 79.9874 39.5265C80.9506 38.9599 81.9988 38.6766 83.1321 38.6766C83.982 38.6766 84.6903 38.7805 85.2569 38.9882C85.8424 39.1771 86.3146 39.4226 86.6734 39.7248C87.0323 40.027 87.3061 40.3481 87.495 40.6881H88.005V33.2937H91.5746V53.1252H88.0616V51.4254H87.5517C87.2306 51.9542 86.7301 52.4359 86.0501 52.8703C85.3891 53.3047 84.4164 53.5219 83.1321 53.5219ZM84.2086 50.4055C85.3041 50.4055 86.2201 50.0561 86.9567 49.3573C87.6933 48.6395 88.0616 47.6008 88.0616 46.2409V45.9576C88.0616 44.5977 87.6933 43.5683 86.9567 42.8695C86.239 42.1518 85.323 41.793 84.2086 41.793C83.1132 41.793 82.1972 42.1518 81.4606 42.8695C80.724 43.5683 80.3557 44.5977 80.3557 45.9576V46.2409C80.3557 47.6008 80.724 48.6395 81.4606 49.3573C82.1972 50.0561 83.1132 50.4055 84.2086 50.4055ZM99.8952 53.5219C98.8942 53.5219 97.9971 53.3519 97.2038 53.0119C96.4106 52.6531 95.7778 52.1431 95.3057 51.4821C94.8524 50.8021 94.6257 49.9805 94.6257 49.0173C94.6257 48.054 94.8524 47.2513 95.3057 46.6092C95.7778 45.9481 96.42 45.4571 97.2321 45.136C98.0632 44.796 99.0075 44.626 100.065 44.626H103.918V43.8328C103.918 43.1717 103.71 42.6334 103.295 42.2179C102.879 41.7835 102.218 41.5663 101.312 41.5663C100.424 41.5663 99.763 41.7741 99.3286 42.1896C98.8942 42.5862 98.6109 43.1056 98.4787 43.7478L95.1923 42.6429C95.419 41.9252 95.7778 41.2736 96.2689 40.6881C96.7789 40.0837 97.4493 39.602 98.2804 39.2432C99.1303 38.8654 100.16 38.6766 101.368 38.6766C103.219 38.6766 104.683 39.1393 105.76 40.0648C106.836 40.9903 107.375 42.3312 107.375 44.0877V49.3289C107.375 49.8955 107.639 50.1788 108.168 50.1788H109.301V53.1252H106.921C106.222 53.1252 105.646 52.9553 105.193 52.6153C104.74 52.2753 104.513 51.822 104.513 51.2554V51.2271H103.975C103.899 51.4537 103.729 51.7559 103.465 52.1337C103.2 52.4925 102.785 52.8136 102.218 53.0969C101.652 53.3802 100.877 53.5219 99.8952 53.5219ZM100.519 50.6321C101.52 50.6321 102.332 50.3583 102.955 49.8105C103.597 49.2439 103.918 48.4979 103.918 47.5724V47.2891H100.32C99.6591 47.2891 99.1397 47.4308 98.762 47.7141C98.3843 47.9974 98.1954 48.394 98.1954 48.904C98.1954 49.4139 98.3937 49.8294 98.7903 50.1505C99.187 50.4716 99.763 50.6321 100.519 50.6321Z" fill="white"/>
<path d="M116.864 0L119.925 18.5809L138.506 21.6415L119.925 24.7021L116.864 43.283L113.804 24.7021L95.2227 21.6415L113.804 18.5809L116.864 0Z" fill="#F5BBD1"/>
</svg>
