<svg width="118" height="59" viewBox="0 0 118 59" fill="none" xmlns="http://www.w3.org/2000/svg">
<rect x="0.535133" y="18.7297" width="107.543" height="39.157" rx="19.5785" stroke="black" stroke-width="1.07027"/>
<path d="M19.32 45.7432C18.4672 45.7432 17.7029 45.5984 17.0271 45.3088C16.3512 45.0031 15.8122 44.5686 15.4099 44.0054C15.0237 43.4262 14.8307 42.7262 14.8307 41.9056C14.8307 41.0849 15.0237 40.4011 15.4099 39.854C15.8122 39.2908 16.3593 38.8724 17.0512 38.5989C17.7592 38.3092 18.5637 38.1644 19.4648 38.1644H22.7474V37.4886C22.7474 36.9254 22.5704 36.4668 22.2164 36.1128C21.8624 35.7427 21.2992 35.5577 20.5268 35.5577C19.7706 35.5577 19.2074 35.7347 18.8373 36.0887C18.4672 36.4266 18.2258 36.8691 18.1132 37.4162L15.3134 36.4749C15.5065 35.8634 15.8122 35.3083 16.2306 34.8095C16.665 34.2946 17.2362 33.8842 17.9442 33.5785C18.6683 33.2567 19.5453 33.0958 20.5751 33.0958C22.152 33.0958 23.3991 33.49 24.3162 34.2785C25.2334 35.0669 25.692 36.2094 25.692 37.7058V42.1711C25.692 42.6538 25.9173 42.8952 26.3678 42.8952H27.3333V45.4053H25.3058C24.7105 45.4053 24.2197 45.2605 23.8335 44.9709C23.4473 44.6812 23.2542 44.2951 23.2542 43.8123V43.7882H22.7956C22.7313 43.9813 22.5865 44.2387 22.3612 44.5606C22.1359 44.8663 21.7819 45.1398 21.2992 45.3812C20.8165 45.6226 20.1567 45.7432 19.32 45.7432ZM19.851 43.2813C20.7038 43.2813 21.3957 43.048 21.9267 42.5814C22.4738 42.0987 22.7474 41.4631 22.7474 40.6746V40.4332H19.6821C19.1189 40.4332 18.6764 40.5539 18.3546 40.7953C18.0327 41.0367 17.8718 41.3746 17.8718 41.809C17.8718 42.2435 18.0408 42.5975 18.3787 42.871C18.7166 43.1446 19.2074 43.2813 19.851 43.2813ZM34.1484 45.7432C33.199 45.7432 32.306 45.5099 31.4693 45.0433C30.6486 44.5606 29.9889 43.8606 29.4901 42.9434C28.9913 42.0262 28.7419 40.916 28.7419 39.6126V39.2264C28.7419 37.9231 28.9913 36.8128 29.4901 35.8956C29.9889 34.9784 30.6486 34.2865 31.4693 33.8199C32.2899 33.3372 33.183 33.0958 34.1484 33.0958C34.8725 33.0958 35.4759 33.1843 35.9586 33.3613C36.4575 33.5222 36.8597 33.7314 37.1655 33.9888C37.4712 34.2463 37.7045 34.5198 37.8654 34.8095H38.2999V28.5099H41.341V45.4053H38.3481V43.9572H37.9137C37.6401 44.4077 37.2137 44.818 36.6345 45.1881C36.0713 45.5582 35.2426 45.7432 34.1484 45.7432ZM35.0656 43.0882C35.9989 43.0882 36.7793 42.7906 37.4068 42.1952C38.0344 41.5837 38.3481 40.6987 38.3481 39.5402V39.2988C38.3481 38.1403 38.0344 37.2633 37.4068 36.668C36.7954 36.0565 36.015 35.7508 35.0656 35.7508C34.1323 35.7508 33.3519 36.0565 32.7244 36.668C32.0968 37.2633 31.783 38.1403 31.783 39.2988V39.5402C31.783 40.6987 32.0968 41.5837 32.7244 42.1952C33.3519 42.7906 34.1323 43.0882 35.0656 43.0882ZM44.7128 45.4053V33.4337H47.754V45.4053H44.7128ZM46.2334 32.0338C45.6863 32.0338 45.2196 31.8568 44.8335 31.5028C44.4634 31.1488 44.2783 30.6822 44.2783 30.1029C44.2783 29.5236 44.4634 29.057 44.8335 28.703C45.2196 28.349 45.6863 28.172 46.2334 28.172C46.7966 28.172 47.2632 28.349 47.6333 28.703C48.0034 29.057 48.1884 29.5236 48.1884 30.1029C48.1884 30.6822 48.0034 31.1488 47.6333 31.5028C47.2632 31.8568 46.7966 32.0338 46.2334 32.0338ZM51.124 45.4053V33.4337H54.1169V35.0026H54.5514C54.7445 34.5842 55.1065 34.19 55.6375 33.8199C56.1685 33.4337 56.973 33.2406 58.0511 33.2406C58.9844 33.2406 59.797 33.4578 60.4889 33.8923C61.1969 34.3107 61.744 34.898 62.1302 35.6542C62.5164 36.3944 62.7095 37.2633 62.7095 38.261V45.4053H59.6683V38.5023C59.6683 37.6012 59.443 36.9254 58.9925 36.4749C58.558 36.0243 57.9305 35.7991 57.1098 35.7991C56.1765 35.7991 55.4525 36.1128 54.9375 36.7404C54.4226 37.3518 54.1652 38.2127 54.1652 39.323V45.4053H51.124ZM70.8244 45.7432C69.875 45.7432 68.982 45.5099 68.1452 45.0433C67.3246 44.5606 66.6649 43.8606 66.166 42.9434C65.6672 42.0262 65.4178 40.916 65.4178 39.6126V39.2264C65.4178 37.9231 65.6672 36.8128 66.166 35.8956C66.6649 34.9784 67.3246 34.2865 68.1452 33.8199C68.9659 33.3372 69.8589 33.0958 70.8244 33.0958C71.5485 33.0958 72.1519 33.1843 72.6346 33.3613C73.1334 33.5222 73.5357 33.7314 73.8414 33.9888C74.1471 34.2463 74.3805 34.5198 74.5414 34.8095H74.9758V28.5099H78.017V45.4053H75.0241V43.9572H74.5896C74.3161 44.4077 73.8897 44.818 73.3104 45.1881C72.7472 45.5582 71.9185 45.7432 70.8244 45.7432ZM71.7415 43.0882C72.6748 43.0882 73.4552 42.7906 74.0828 42.1952C74.7103 41.5837 75.0241 40.6987 75.0241 39.5402V39.2988C75.0241 38.1403 74.7103 37.2633 74.0828 36.668C73.4713 36.0565 72.6909 35.7508 71.7415 35.7508C70.8083 35.7508 70.0279 36.0565 69.4003 36.668C68.7728 37.2633 68.459 38.1403 68.459 39.2988V39.5402C68.459 40.6987 68.7728 41.5837 69.4003 42.1952C70.0279 42.7906 70.8083 43.0882 71.7415 43.0882ZM85.1057 45.7432C84.2529 45.7432 83.4886 45.5984 82.8128 45.3088C82.137 45.0031 81.5979 44.5686 81.1956 44.0054C80.8095 43.4262 80.6164 42.7262 80.6164 41.9056C80.6164 41.0849 80.8095 40.4011 81.1956 39.854C81.5979 39.2908 82.145 38.8724 82.8369 38.5989C83.5449 38.3092 84.3495 38.1644 85.2506 38.1644H88.5331V37.4886C88.5331 36.9254 88.3561 36.4668 88.0021 36.1128C87.6481 35.7427 87.0849 35.5577 86.3126 35.5577C85.5563 35.5577 84.9931 35.7347 84.623 36.0887C84.2529 36.4266 84.0116 36.8691 83.8989 37.4162L81.0991 36.4749C81.2922 35.8634 81.5979 35.3083 82.0163 34.8095C82.4507 34.2946 83.022 33.8842 83.73 33.5785C84.4541 33.2567 85.331 33.0958 86.3608 33.0958C87.9377 33.0958 89.1848 33.49 90.102 34.2785C91.0191 35.0669 91.4777 36.2094 91.4777 37.7058V42.1711C91.4777 42.6538 91.703 42.8952 92.1536 42.8952H93.119V45.4053H91.0916C90.4962 45.4053 90.0054 45.2605 89.6192 44.9709C89.2331 44.6812 89.04 44.2951 89.04 43.8123V43.7882H88.5814C88.517 43.9813 88.3722 44.2387 88.1469 44.5606C87.9216 44.8663 87.5676 45.1398 87.0849 45.3812C86.6022 45.6226 85.9425 45.7432 85.1057 45.7432ZM85.6367 43.2813C86.4896 43.2813 87.1815 43.048 87.7125 42.5814C88.2596 42.0987 88.5331 41.4631 88.5331 40.6746V40.4332H85.4678C84.9046 40.4332 84.4621 40.5539 84.1403 40.7953C83.8185 41.0367 83.6576 41.3746 83.6576 41.809C83.6576 42.2435 83.8265 42.5975 84.1644 42.871C84.5023 43.1446 84.9931 43.2813 85.6367 43.2813Z" fill="black"/>
<path d="M99.5625 0L102.17 15.83L118 18.4375L102.17 21.045L99.5625 36.875L96.955 21.045L81.125 18.4375L96.955 15.83L99.5625 0Z" fill="#F5BBD1"/>
</svg>
