<svg width="115" height="115" viewBox="0 0 115 115" fill="none" xmlns="http://www.w3.org/2000/svg">
<mask id="mask0_40_73" style="mask-type:luminance" maskUnits="userSpaceOnUse" x="3" y="3" width="109" height="109">
<path d="M3.5212 3.52148H111.506V111.506H3.5212V3.52148Z" fill="white"/>
</mask>
<g mask="url(#mask0_40_73)">
<path d="M3.5212 3.52148H111.506V111.506H3.5212V3.52148Z" fill="#FFD600"/>
</g>
<path d="M74.1256 84.3508C76.2013 87.7223 78.457 90.9528 83.2352 90.9528C87.2488 90.9528 89.3545 88.9583 89.3545 86.1986C89.3545 82.8959 87.1766 81.7232 82.7614 79.8005L80.3407 78.7685C73.3545 75.8052 68.7084 72.0916 68.7084 64.2477C68.7084 57.0185 74.2424 51.5174 82.8902 51.5174C89.0484 51.5174 93.4729 53.65 96.6644 59.2353L89.1236 64.0557C87.4647 61.092 85.6709 59.9253 82.8902 59.9253C80.0526 59.9253 78.2561 61.7159 78.2561 64.0557C78.2561 66.9472 80.0556 68.1172 84.21 69.9078L86.6307 70.9398C94.8646 74.4461 99.508 78.0276 99.508 86.0785C99.508 94.7535 92.6568 99.5077 83.4601 99.5077C74.4644 99.5077 69.3561 94.9934 66.5126 89.4051L74.1256 84.3508ZM39.3723 84.5967C40.89 87.3144 43.1969 89.4051 46.5143 89.4051C49.6878 89.4051 51.5147 88.1512 51.5147 83.2769V51.5144H61.5122V84.8129C61.5122 94.9122 55.6541 99.5077 47.0991 99.5077C39.3693 99.5077 33.79 94.2704 31.5163 89.4051L39.3723 84.5967Z" fill="#000001"/>
</svg>
