<svg width="107" height="107" viewBox="0 0 107 107" fill="none" xmlns="http://www.w3.org/2000/svg">
<mask id="mask0_40_41" style="mask-type:luminance" maskUnits="userSpaceOnUse" x="3" y="3" width="75" height="76">
<path d="M3.42892 3.70166H77.7532V78.1093H3.42892V3.70166Z" fill="white"/>
</mask>
<g mask="url(#mask0_40_41)">
<mask id="mask1_40_41" style="mask-type:luminance" maskUnits="userSpaceOnUse" x="3" y="3" width="75" height="76">
<path d="M53.1597 3.68994C27.7445 3.68994 29.3313 14.7121 29.3313 14.7121L29.3595 26.1312H53.6106V29.5597H19.727C19.727 29.5597 3.46465 27.7151 3.46465 53.3602C3.46437 79.0074 17.6589 78.0979 17.6589 78.0979H26.1297V66.1958C26.1297 66.1958 25.673 51.9999 40.0974 51.9999H64.1515C64.1515 51.9999 77.6636 52.2195 77.6636 38.9384V16.9791C77.6636 16.9791 79.7175 3.68994 53.1597 3.68994ZM39.7859 11.3686C42.1984 11.3686 44.1478 13.3191 44.1478 15.7322C44.1478 18.1455 42.1984 20.0958 39.7859 20.0958C37.3725 20.0958 35.4225 18.1455 35.4225 15.7322C35.4225 13.3191 37.3725 11.3686 39.7859 11.3686Z" fill="white"/>
</mask>
<g mask="url(#mask1_40_41)">
<path d="M3.46364 3.70117V79.0077H79.7168V3.70117H3.46364Z" fill="url(#paint0_linear_40_41)"/>
</g>
</g>
<mask id="mask2_40_41" style="mask-type:luminance" maskUnits="userSpaceOnUse" x="29" y="28" width="75" height="76">
<path d="M29.318 28.8181H103.576V103.319H29.318V28.8181Z" fill="white"/>
</mask>
<g mask="url(#mask2_40_41)">
<mask id="mask3_40_41" style="mask-type:luminance" maskUnits="userSpaceOnUse" x="29" y="28" width="75" height="76">
<path d="M53.8805 103.291C79.2936 103.291 77.7058 92.267 77.7058 92.267L77.6785 80.847H53.4258V77.4205H87.3099C87.3099 77.4205 103.574 79.2632 103.574 53.6197C103.574 27.9732 89.3797 28.8827 89.3797 28.8827H80.9086V40.7831C80.9086 40.7831 81.3633 54.9803 66.9417 54.9803H42.8851C42.8851 54.9803 29.3725 54.7608 29.3725 68.043V90.0011C29.3725 90.0011 27.3205 103.291 53.8805 103.291ZM67.2513 95.6111C64.8408 95.6111 62.8886 93.6586 62.8886 91.2478C62.8886 88.8327 64.8408 86.8842 67.2513 86.8842C69.6661 86.8842 71.6144 88.8327 71.6144 91.2478C71.6144 93.6586 69.6661 95.6111 67.2513 95.6111Z" fill="white"/>
</mask>
<g mask="url(#mask3_40_41)">
<path d="M27.321 27.9727V103.291H103.574V27.9727H27.321Z" fill="url(#paint1_linear_40_41)"/>
</g>
</g>
<defs>
<linearGradient id="paint0_linear_40_41" x1="3.77334" y1="3.38825" x2="79.9391" y2="78.7832" gradientUnits="userSpaceOnUse">
<stop stop-color="#387EB8"/>
<stop offset="0.125" stop-color="#387EB8"/>
<stop offset="0.140625" stop-color="#387EB8"/>
<stop offset="0.15625" stop-color="#387DB7"/>
<stop offset="0.171875" stop-color="#387DB6"/>
<stop offset="0.1875" stop-color="#387CB5"/>
<stop offset="0.203125" stop-color="#387CB4"/>
<stop offset="0.21875" stop-color="#387BB3"/>
<stop offset="0.234375" stop-color="#387BB2"/>
<stop offset="0.25" stop-color="#387AB1"/>
<stop offset="0.265625" stop-color="#387AB1"/>
<stop offset="0.28125" stop-color="#3879B0"/>
<stop offset="0.296875" stop-color="#3879AF"/>
<stop offset="0.3125" stop-color="#3878AE"/>
<stop offset="0.328125" stop-color="#3778AD"/>
<stop offset="0.34375" stop-color="#3777AC"/>
<stop offset="0.359375" stop-color="#3777AB"/>
<stop offset="0.375" stop-color="#3776AB"/>
<stop offset="0.390625" stop-color="#3776AA"/>
<stop offset="0.40625" stop-color="#3775A9"/>
<stop offset="0.421875" stop-color="#3775A8"/>
<stop offset="0.4375" stop-color="#3774A7"/>
<stop offset="0.453125" stop-color="#3774A6"/>
<stop offset="0.46875" stop-color="#3773A5"/>
<stop offset="0.484375" stop-color="#3773A4"/>
<stop offset="0.494335" stop-color="#3772A4"/>
<stop offset="0.5" stop-color="#3772A3"/>
<stop offset="0.505665" stop-color="#3772A3"/>
<stop offset="0.515625" stop-color="#3771A2"/>
<stop offset="0.53125" stop-color="#3771A2"/>
<stop offset="0.546875" stop-color="#3771A1"/>
<stop offset="0.5625" stop-color="#3770A0"/>
<stop offset="0.578125" stop-color="#37709F"/>
<stop offset="0.59375" stop-color="#376F9E"/>
<stop offset="0.609375" stop-color="#376F9D"/>
<stop offset="0.625" stop-color="#376E9D"/>
<stop offset="0.640625" stop-color="#366E9C"/>
<stop offset="0.65625" stop-color="#366D9B"/>
<stop offset="0.671875" stop-color="#366D9A"/>
<stop offset="0.6875" stop-color="#366C99"/>
<stop offset="0.703125" stop-color="#366C98"/>
<stop offset="0.71875" stop-color="#366B97"/>
<stop offset="0.734375" stop-color="#366B97"/>
<stop offset="0.75" stop-color="#366A96"/>
<stop offset="0.765625" stop-color="#366A95"/>
<stop offset="0.78125" stop-color="#366994"/>
<stop offset="0.8125" stop-color="#366994"/>
<stop offset="0.875" stop-color="#366994"/>
<stop offset="1" stop-color="#366994"/>
</linearGradient>
<linearGradient id="paint1_linear_40_41" x1="26.9127" y1="28.4044" x2="104.785" y2="102.01" gradientUnits="userSpaceOnUse">
<stop stop-color="#FFE052"/>
<stop offset="0.125" stop-color="#FFE052"/>
<stop offset="0.1875" stop-color="#FFE052"/>
<stop offset="0.21875" stop-color="#FFE052"/>
<stop offset="0.234375" stop-color="#FFDF51"/>
<stop offset="0.25" stop-color="#FFDF51"/>
<stop offset="0.265625" stop-color="#FFDE50"/>
<stop offset="0.28125" stop-color="#FFDD4F"/>
<stop offset="0.296875" stop-color="#FFDD4E"/>
<stop offset="0.3125" stop-color="#FFDC4E"/>
<stop offset="0.328125" stop-color="#FFDB4D"/>
<stop offset="0.34375" stop-color="#FFDB4C"/>
<stop offset="0.359375" stop-color="#FFDA4B"/>
<stop offset="0.375" stop-color="#FFD94B"/>
<stop offset="0.390625" stop-color="#FFD94A"/>
<stop offset="0.40625" stop-color="#FFD849"/>
<stop offset="0.421875" stop-color="#FFD748"/>
<stop offset="0.4375" stop-color="#FFD748"/>
<stop offset="0.453125" stop-color="#FFD647"/>
<stop offset="0.46875" stop-color="#FFD546"/>
<stop offset="0.482837" stop-color="#FFD545"/>
<stop offset="0.484375" stop-color="#FFD445"/>
<stop offset="0.5" stop-color="#FFD445"/>
<stop offset="0.515625" stop-color="#FFD444"/>
<stop offset="0.517163" stop-color="#FFD343"/>
<stop offset="0.53125" stop-color="#FFD343"/>
<stop offset="0.546875" stop-color="#FFD242"/>
<stop offset="0.5625" stop-color="#FFD242"/>
<stop offset="0.578125" stop-color="#FFD141"/>
<stop offset="0.59375" stop-color="#FFD040"/>
<stop offset="0.609375" stop-color="#FFD03F"/>
<stop offset="0.625" stop-color="#FFCF3F"/>
<stop offset="0.640625" stop-color="#FFCE3E"/>
<stop offset="0.65625" stop-color="#FFCE3D"/>
<stop offset="0.671875" stop-color="#FFCD3C"/>
<stop offset="0.6875" stop-color="#FFCC3C"/>
<stop offset="0.703125" stop-color="#FFCC3B"/>
<stop offset="0.71875" stop-color="#FFCB3A"/>
<stop offset="0.734375" stop-color="#FFCA39"/>
<stop offset="0.75" stop-color="#FFCA39"/>
<stop offset="0.765625" stop-color="#FFC938"/>
<stop offset="0.78125" stop-color="#FFC837"/>
<stop offset="0.796875" stop-color="#FFC836"/>
<stop offset="0.8125" stop-color="#FFC735"/>
<stop offset="0.828125" stop-color="#FFC635"/>
<stop offset="0.84375" stop-color="#FFC634"/>
<stop offset="0.859375" stop-color="#FFC533"/>
<stop offset="0.875" stop-color="#FFC432"/>
<stop offset="0.890625" stop-color="#FFC432"/>
<stop offset="0.90625" stop-color="#FFC331"/>
<stop offset="0.9375" stop-color="#FFC331"/>
<stop offset="1" stop-color="#FFC331"/>
</linearGradient>
</defs>
</svg>
